<svg width="110" height="45" viewBox="0 0 110 45" fill="none" xmlns="http://www.w3.org/2000/svg">
<path d="M15.8987 17.263C17.1312 28.446 29.7796 33.4782 32.809 34.5275C32.3673 35.4624 31.7244 36.3107 30.9522 36.9982C27.0048 40.5149 21.1226 39.812 16.9629 37.0263C12.0833 33.7585 9.09737 27.8065 8.88012 21.9965C8.61557 14.9334 12.4386 8.78796 17.6383 4.29789C19.4742 2.71306 21.4625 1.31001 23.5299 0.0441284C22.1951 0.861057 21.0516 2.90861 20.2981 4.20149C18.5068 7.2742 17.6207 10.8856 18.4793 14.4012C19.1569 17.1743 20.8487 19.9864 22.9695 21.9034C26.2436 24.8632 33.3282 26.2806 33.4574 31.5887C33.4635 31.8261 33.4547 32.0635 33.4327 32.2988C18.1135 27.3608 15.9328 17.4183 15.8998 17.263H15.8987Z" fill="#C9FA49"/>
<path d="M45.9563 22.8603C45.9316 22.8603 45.9068 22.8625 45.8826 22.8641L44.9889 17.5345C45.3453 17.3704 45.5933 17.0107 45.5933 16.5926C45.5933 16.0197 45.1297 15.5553 44.5577 15.5553C44.4664 15.5553 44.3778 15.5685 44.2937 15.5905L42.4935 12.3107C42.7669 12.124 42.9467 11.8094 42.9467 11.453C42.9467 10.8801 42.4831 10.4157 41.9111 10.4157C41.5833 10.4157 41.2912 10.5689 41.1015 10.8069L33.8178 6.04961C33.9119 5.89316 33.9669 5.71083 33.9669 5.51527C33.9669 4.94237 33.5032 4.478 32.9312 4.478C32.3636 4.478 31.9027 4.93577 31.8961 5.50315L27.1755 5.94494C27.0286 5.55108 26.6508 5.26959 26.2058 5.26959C25.6338 5.26959 25.1702 5.73396 25.1702 6.30686C25.1702 6.52335 25.2367 6.72442 25.35 6.89078L22.4405 9.89297C22.3234 9.84725 22.1969 9.82081 22.0632 9.82081C21.4912 9.82081 21.0276 10.2852 21.0276 10.8581C21.0276 11.2938 21.296 11.6662 21.676 11.8199V15.032L23.4047 17.1423C23.216 17.3302 23.0989 17.5907 23.0989 17.8783C23.0989 18.4512 23.5625 18.9155 24.1345 18.9155C24.4761 18.9155 24.7786 18.7492 24.9672 18.4936L29.5872 21.2721C29.5553 21.3718 29.5383 21.4776 29.5383 21.5878C29.5383 22.1607 30.0019 22.625 30.5739 22.625C30.7103 22.625 30.8401 22.5981 30.9595 22.5501L34.9299 27.4297C34.7429 27.6175 34.6274 27.8764 34.6274 28.1623C34.6274 28.7181 35.0647 29.1709 35.613 29.1968L35.9155 35.6298C35.42 35.7075 35.0405 36.1355 35.0405 36.6533C35.0405 37.056 35.2704 37.4047 35.6053 37.5765L32.3339 43.2284C32.2344 43.1898 32.1266 43.1678 32.0133 43.1678C31.5205 43.1678 31.1206 43.5683 31.1206 44.0618C31.1206 44.5554 31.5205 44.9559 32.0133 44.9559C32.5061 44.9559 32.9059 44.5554 32.9059 44.0618C32.9059 43.8949 32.8597 43.7396 32.78 43.6057L40.2006 37.3083C40.3601 37.4559 40.5724 37.5474 40.8067 37.5474C41.2995 37.5474 41.6993 37.1469 41.6993 36.6533C41.6993 36.3729 41.5701 36.1228 41.3688 35.9587L43.7756 32.0894C43.9318 32.1842 44.1149 32.2398 44.3107 32.2398C44.8827 32.2398 45.3464 31.7754 45.3464 31.2025C45.3464 30.7315 45.0329 30.3344 44.6039 30.2082L45.8205 24.9249C45.865 24.931 45.9101 24.9348 45.9563 24.9348C46.5283 24.9348 46.992 24.4704 46.992 23.8975C46.992 23.3246 46.5283 22.8603 45.9563 22.8603ZM41.9287 27.3988C41.7444 27.2292 41.4991 27.125 41.2291 27.125C40.6901 27.125 40.2479 27.5371 40.1984 28.0643H36.6932C36.6696 27.8103 36.5541 27.5839 36.3814 27.4164L39.2705 23.7268C39.4339 23.8347 39.6297 23.8981 39.8398 23.8981C40.2792 23.8981 40.6538 23.6238 40.8039 23.2371L44.9234 23.8452C44.9223 23.8628 44.9207 23.8805 44.9207 23.8986C44.9207 24.13 44.9971 24.3432 45.1253 24.5162L41.9281 27.3999L41.9287 27.3988ZM36.1113 35.6177L35.8088 29.1875C35.915 29.1726 36.0162 29.1412 36.1091 29.0966L39.3767 34.4669L36.9957 36.1774C36.8285 35.854 36.4969 35.6309 36.1113 35.6177ZM45.6896 22.8966C45.326 22.9936 45.0422 23.2833 44.952 23.6502L40.8584 23.0459C40.8694 22.9859 40.876 22.9236 40.876 22.8603C40.876 22.56 40.7478 22.2901 40.5438 22.1006L44.121 17.5318C44.2541 17.594 44.4015 17.6298 44.5582 17.6298C44.6424 17.6298 44.7232 17.6188 44.8019 17.6001L45.6901 22.8972L45.6896 22.8966ZM44.1078 15.6594C43.7948 15.8114 43.5693 16.1155 43.5292 16.4763L36.5546 16.3733C36.5563 16.3507 36.5579 16.3281 36.5579 16.3056C36.5579 16.0318 36.4512 15.7833 36.278 15.5977L41.1295 12.1322C41.3193 12.3515 41.5987 12.4903 41.9111 12.4903C42.0568 12.4903 42.196 12.4594 42.3219 12.4049L44.1078 15.6588V15.6594ZM32.4538 6.43521L31.1784 10.8763C31.1168 10.8647 31.053 10.8581 30.9875 10.8581C30.4898 10.8581 30.0745 11.2101 29.975 11.6789L23.0978 10.8796C23.0978 10.8724 23.0989 10.8652 23.0989 10.8581C23.0989 10.6466 23.0356 10.4504 22.9267 10.2863L32.0166 6.00223C32.115 6.18732 32.2674 6.33826 32.4533 6.43521H32.4538ZM23.0763 11.0746L29.9535 11.8739C29.9535 11.881 29.9524 11.8882 29.9524 11.8954C29.9524 12.1207 30.025 12.3289 30.1471 12.4991L24.8468 17.1263C24.6609 16.9501 24.4106 16.841 24.1345 16.841C24.0553 16.841 23.9783 16.8509 23.9046 16.8674L22.2585 11.8766C22.6666 11.7984 22.99 11.4811 23.0763 11.0751V11.0746ZM24.976 17.274L30.2758 12.6467C30.4617 12.823 30.712 12.9321 30.9881 12.9321C31.5414 12.9321 31.9918 12.4974 32.021 11.9504L40.8848 11.5852C40.9024 11.7246 40.948 11.8551 41.0151 11.9714L36.1267 15.4638C35.9562 15.341 35.7478 15.2672 35.5217 15.2672C34.9497 15.2672 34.4861 15.7316 34.4861 16.3045C34.4861 16.3381 34.4877 16.3711 34.491 16.4042L25.1432 17.6442C25.1119 17.5081 25.0541 17.383 24.9755 17.2729L24.976 17.274ZM40.9942 10.9716C40.9282 11.0977 40.8875 11.2398 40.8787 11.3897L32.0133 11.7549C31.9621 11.3781 31.7097 11.0658 31.367 10.9308L32.6364 6.50958C32.7299 6.53712 32.8289 6.5531 32.9312 6.5531C33.237 6.5531 33.5109 6.41979 33.7007 6.20826L40.9937 10.9716H40.9942ZM25.4765 7.04226C25.6635 7.22845 25.9215 7.34413 26.2064 7.34413C26.7784 7.34413 27.242 6.87976 27.242 6.30686C27.242 6.24902 27.236 6.19283 27.2272 6.1372L31.9132 5.69871C31.9203 5.74002 31.9297 5.78134 31.9418 5.821L22.8002 10.1293C22.7469 10.0753 22.6875 10.0274 22.6237 9.98607L25.4765 7.04226ZM21.8729 14.9615V11.8766C21.9334 11.8876 21.995 11.8943 22.0588 11.8948L23.7187 16.9286C23.6621 16.9534 23.6076 16.9831 23.557 17.0173L21.8729 14.9615ZM25.0684 18.325C25.1333 18.1895 25.1707 18.0386 25.1707 17.8783C25.1707 17.8656 25.1691 17.8529 25.1691 17.8403L34.5295 16.5986C34.656 17.0288 35.052 17.3428 35.5228 17.3428C36.0035 17.3428 36.4067 17.0145 36.5233 16.5694L43.5264 16.673C43.5506 16.9848 43.7118 17.258 43.9505 17.4315L40.3876 21.9816C40.2286 21.8819 40.0411 21.8235 39.8398 21.8235C39.3074 21.8235 38.869 22.2262 38.8113 22.744L31.6052 21.6803C31.6079 21.6495 31.6101 21.6186 31.6101 21.5872C31.6101 21.0143 31.1465 20.5499 30.5745 20.5499C30.1829 20.5499 29.8419 20.7681 29.6659 21.0892L25.069 18.325H25.0684ZM31.5689 21.8731L38.808 22.9418C38.8283 23.2007 38.9427 23.4326 39.1176 23.6034L36.2279 27.2936C36.0651 27.1873 35.8715 27.1245 35.6625 27.1245C35.4469 27.1245 35.2462 27.1906 35.0806 27.3041L31.1371 22.457C31.3439 22.3226 31.4996 22.1161 31.5689 21.8731ZM32.5088 43.3182L35.7901 37.6493C35.8814 37.6757 35.9771 37.6906 36.0767 37.6906C36.6487 37.6906 37.1123 37.2262 37.1123 36.6533C37.1123 36.553 37.0975 36.4566 37.0711 36.3652L39.4795 34.6349L40.2726 35.9383C40.0559 36.1013 39.9146 36.3602 39.9146 36.6528C39.9146 36.8411 39.9729 37.0158 40.0724 37.1601L32.6623 43.4482C32.6161 43.3992 32.5649 43.3551 32.5088 43.3176V43.3182ZM41.2038 35.8529C41.0839 35.7934 40.9497 35.7587 40.8072 35.7587C40.6763 35.7587 40.5526 35.7873 40.4409 35.838L39.639 34.5198L43.4516 31.7809C43.4989 31.8514 43.5556 31.9148 43.6183 31.9715L41.2043 35.8529H41.2038ZM44.4114 30.1708C44.3784 30.1674 44.3448 30.1658 44.3113 30.1658C43.7393 30.1658 43.2756 30.6302 43.2756 31.2031C43.2756 31.3468 43.3048 31.4835 43.3576 31.608L39.5367 34.3524L36.2774 28.9958C36.5079 28.825 36.6657 28.5617 36.6938 28.2604H40.1989C40.2484 28.787 40.6906 29.1996 41.2296 29.1996C41.8016 29.1996 42.2653 28.7352 42.2653 28.1623C42.2653 27.931 42.1888 27.7178 42.0607 27.5448L45.2578 24.661C45.364 24.7585 45.4905 24.8346 45.6302 24.8814L44.4119 30.1708H44.4114Z" fill="#C9FA49" fill-opacity="0.6"/>
<path d="M64.7966 13.7033C66.2975 14.469 67.4569 15.5669 68.2753 16.9985C69.0932 18.4302 69.5024 20.1005 69.5024 22.0086C69.5024 23.9168 69.0932 25.5738 68.2753 26.9785C67.4569 28.3832 66.2975 29.459 64.7966 30.206C63.2951 30.9535 61.5472 31.327 59.5512 31.327H53.4297V12.5553H59.5512C61.5466 12.5553 63.2951 12.9381 64.7966 13.7033ZM64.5942 27.0319C65.7629 25.8437 66.3471 24.1691 66.3471 22.0081C66.3471 19.8471 65.7624 18.1278 64.5942 16.9032C63.4254 15.6792 61.7446 15.0667 59.5512 15.0667H56.5037V28.8145H59.5512C61.7446 28.8145 63.4254 28.2202 64.5942 27.0319Z" fill="white"/>
<path d="M75.6234 15.0402V20.55H82.0952V23.0619H75.6234V28.8151H82.9043V31.327H72.5489V12.5283H82.9043V15.0402H75.6234Z" fill="white"/>
<path d="M95.2828 21.9546L101.108 31.327H97.656L93.4221 24.5206L89.4577 31.327H86.0329L91.8579 21.9546L86.0059 12.5553H89.4577L93.7186 19.4157L97.7099 12.5553H101.135L95.2828 21.9546Z" fill="white"/>
</svg>
