<svg width="39" height="45" viewBox="0 0 39 45" fill="none" xmlns="http://www.w3.org/2000/svg">
<path d="M7.03148 17.2188C8.26403 28.4019 20.9124 33.434 23.9418 34.4834C23.5001 35.4182 22.8572 36.2666 22.085 36.954C18.1376 40.4707 12.2554 39.7678 8.09573 36.9821C3.21613 33.7144 0.230185 27.7623 0.0129347 21.9524C-0.251615 14.8893 3.57143 8.74384 8.77113 4.25376C10.607 2.66893 12.5953 1.26588 14.6627 0C13.3279 0.816929 12.1844 2.86448 11.4309 4.15736C9.63958 7.23007 8.75353 10.8415 9.61208 14.3571C10.2897 17.1302 11.9815 19.9423 14.1023 21.8593C17.3764 24.8191 24.461 26.2365 24.5902 31.5446C24.5963 31.782 24.5875 32.0194 24.5655 32.2546C9.24633 27.3167 7.06559 17.3742 7.03259 17.2188H7.03148Z" fill="#C9FA49"/>
<path d="M37.0928 22.8159C37.0681 22.8159 37.0433 22.8181 37.0191 22.8197L36.1254 17.4901C36.4818 17.326 36.7298 16.9663 36.7298 16.5482C36.7298 15.9753 36.2662 15.5109 35.6942 15.5109C35.6029 15.5109 35.5143 15.5241 35.4302 15.5461L33.63 12.2663C33.9034 12.0796 34.0832 11.765 34.0832 11.4086C34.0832 10.8357 33.6196 10.3713 33.0476 10.3713C32.7198 10.3713 32.4277 10.5245 32.238 10.7624L24.9543 6.0052C25.0484 5.84876 25.1034 5.66642 25.1034 5.47086C25.1034 4.89797 24.6397 4.43359 24.0677 4.43359C23.5001 4.43359 23.0392 4.89136 23.0326 5.45875L18.312 5.90054C18.1651 5.50667 17.7873 5.22518 17.3423 5.22518C16.7703 5.22518 16.3067 5.68956 16.3067 6.26245C16.3067 6.47894 16.3732 6.68001 16.4865 6.84637L13.577 9.84857C13.4599 9.80285 13.3334 9.7764 13.1997 9.7764C12.6277 9.7764 12.1641 10.2408 12.1641 10.8137C12.1641 11.2494 12.4325 11.6218 12.8125 11.7755V14.9876L14.5412 17.0979C14.3525 17.2858 14.2354 17.5463 14.2354 17.8339C14.2354 18.4068 14.699 18.8711 15.271 18.8711C15.6126 18.8711 15.9151 18.7048 16.1037 18.4492L20.7237 21.2277C20.6918 21.3274 20.6748 21.4332 20.6748 21.5434C20.6748 22.1163 21.1384 22.5806 21.7104 22.5806C21.8468 22.5806 21.9766 22.5536 22.096 22.5057L26.0664 27.3853C25.8794 27.5731 25.7639 27.832 25.7639 28.1179C25.7639 28.6737 26.2012 29.1265 26.7495 29.1524L27.052 35.5854C26.5565 35.6631 26.177 36.0911 26.177 36.6089C26.177 37.0116 26.4069 37.3603 26.7418 37.5321L23.4704 43.184C23.3709 43.1454 23.2631 43.1234 23.1498 43.1234C22.657 43.1234 22.2571 43.5239 22.2571 44.0174C22.2571 44.511 22.657 44.9115 23.1498 44.9115C23.6426 44.9115 24.0424 44.511 24.0424 44.0174C24.0424 43.8505 23.9962 43.6952 23.9165 43.5613L31.3371 37.2639C31.4966 37.4115 31.7089 37.5029 31.9432 37.5029C32.436 37.5029 32.8358 37.1025 32.8358 36.6089C32.8358 36.3285 32.7066 36.0784 32.5053 35.9143L34.9121 32.045C35.0683 32.1397 35.2514 32.1954 35.4472 32.1954C36.0192 32.1954 36.4829 31.731 36.4829 31.1581C36.4829 30.6871 36.1694 30.29 35.7404 30.1638L36.957 24.8805C37.0015 24.8865 37.0466 24.8904 37.0928 24.8904C37.6648 24.8904 38.1285 24.426 38.1285 23.8531C38.1285 23.2802 37.6648 22.8159 37.0928 22.8159ZM33.0652 27.3544C32.8809 27.1847 32.6356 27.0806 32.3656 27.0806C31.8266 27.0806 31.3844 27.4927 31.3349 28.0199H27.8297C27.8061 27.7659 27.6906 27.5395 27.5179 27.372L30.407 23.6824C30.5704 23.7903 30.7662 23.8537 30.9763 23.8537C31.4157 23.8537 31.7903 23.5794 31.9404 23.1926L36.0599 23.8008C36.0588 23.8184 36.0572 23.8361 36.0572 23.8542C36.0572 24.0856 36.1336 24.2988 36.2618 24.4717L33.0646 27.3555L33.0652 27.3544ZM27.2478 35.5733L26.9453 29.1431C27.0515 29.1282 27.1527 29.0968 27.2456 29.0522L30.5132 34.4225L28.1322 36.1329C27.965 35.8096 27.6334 35.5865 27.2478 35.5733ZM36.8261 22.8522C36.4625 22.9492 36.1787 23.2389 36.0885 23.6058L31.9949 23.0015C32.0059 22.9415 32.0125 22.8792 32.0125 22.8159C32.0125 22.5156 31.8843 22.2457 31.6803 22.0562L35.2575 17.4874C35.3906 17.5496 35.538 17.5854 35.6947 17.5854C35.7789 17.5854 35.8597 17.5744 35.9384 17.5557L36.8266 22.8528L36.8261 22.8522ZM35.2443 15.615C34.9313 15.767 34.7058 16.0711 34.6657 16.4319L27.6911 16.3289C27.6928 16.3063 27.6944 16.2837 27.6944 16.2612C27.6944 15.9874 27.5877 15.7389 27.4145 15.5533L32.266 12.0878C32.4558 12.3071 32.7352 12.4459 33.0476 12.4459C33.1933 12.4459 33.3325 12.415 33.4584 12.3605L35.2443 15.6144V15.615ZM23.5903 6.3908L22.3149 10.8319C22.2533 10.8203 22.1895 10.8137 22.124 10.8137C21.6263 10.8137 21.211 11.1657 21.1115 11.6345L14.2343 10.8352C14.2343 10.828 14.2354 10.8208 14.2354 10.8137C14.2354 10.6021 14.1721 10.406 14.0632 10.2419L23.1531 5.95783C23.2515 6.14292 23.4039 6.29385 23.5898 6.3908H23.5903ZM14.2128 11.0302L21.09 11.8295C21.09 11.8366 21.0889 11.8438 21.0889 11.8509C21.0889 12.0763 21.1615 12.2845 21.2836 12.4547L15.9833 17.0819C15.7974 16.9057 15.5471 16.7966 15.271 16.7966C15.1918 16.7966 15.1148 16.8065 15.0411 16.823L13.395 11.8322C13.8031 11.754 14.1265 11.4367 14.2128 11.0307V11.0302ZM16.1125 17.2296L21.4123 12.6023C21.5982 12.7786 21.8485 12.8877 22.1246 12.8877C22.6779 12.8877 23.1283 12.453 23.1575 11.906L32.0213 11.5408C32.0389 11.6802 32.0845 11.8107 32.1516 11.927L27.2632 15.4194C27.0927 15.2966 26.8843 15.2228 26.6582 15.2228C26.0862 15.2228 25.6226 15.6872 25.6226 16.2601C25.6226 16.2937 25.6242 16.3267 25.6275 16.3598L16.2797 17.5997C16.2484 17.4637 16.1906 17.3386 16.112 17.2285L16.1125 17.2296ZM32.1307 10.9272C32.0647 11.0533 32.024 11.1954 32.0152 11.3453L23.1498 11.7105C23.0986 11.3337 22.8462 11.0214 22.5035 10.8864L23.7729 6.46517C23.8664 6.49271 23.9654 6.50869 24.0677 6.50869C24.3735 6.50869 24.6474 6.37538 24.8372 6.16385L32.1302 10.9272H32.1307ZM16.613 6.99786C16.8 7.18405 17.058 7.29973 17.3429 7.29973C17.9149 7.29973 18.3785 6.83535 18.3785 6.26245C18.3785 6.20461 18.3725 6.14843 18.3637 6.09279L23.0497 5.6543C23.0568 5.69562 23.0662 5.73693 23.0783 5.77659L13.9367 10.0849C13.8834 10.0309 13.824 9.98298 13.7602 9.94166L16.613 6.99786ZM13.0094 14.917V11.8322C13.0699 11.8432 13.1315 11.8498 13.1953 11.8504L14.8552 16.8842C14.7986 16.909 14.7441 16.9387 14.6935 16.9729L13.0094 14.917ZM16.2049 18.2806C16.2698 18.1451 16.3072 17.9942 16.3072 17.8339C16.3072 17.8212 16.3056 17.8085 16.3056 17.7959L25.666 16.5542C25.7925 16.9844 26.1885 17.2984 26.6593 17.2984C27.14 17.2984 27.5432 16.9701 27.6598 16.525L34.6629 16.6286C34.6871 16.9404 34.8483 17.2136 35.087 17.3871L31.5241 21.9372C31.3651 21.8375 31.1776 21.7791 30.9763 21.7791C30.4439 21.7791 30.0055 22.1818 29.9478 22.6996L22.7417 21.6359C22.7444 21.6051 22.7466 21.5742 22.7466 21.5428C22.7466 20.9699 22.283 20.5055 21.711 20.5055C21.3194 20.5055 20.9784 20.7237 20.8024 21.0448L16.2055 18.2806H16.2049ZM22.7054 21.8287L29.9445 22.8974C29.9648 23.1563 30.0792 23.3882 30.2541 23.559L27.3644 27.2492C27.2016 27.1429 27.008 27.0801 26.799 27.0801C26.5834 27.0801 26.3827 27.1462 26.2171 27.2597L22.2736 22.4126C22.4804 22.2782 22.6361 22.0716 22.7054 21.8287ZM23.6453 43.2738L26.9266 37.6049C27.0179 37.6313 27.1136 37.6462 27.2132 37.6462C27.7852 37.6462 28.2488 37.1818 28.2488 36.6089C28.2488 36.5086 28.234 36.4122 28.2076 36.3208L30.616 34.5905L31.4091 35.8939C31.1924 36.0569 31.0511 36.3158 31.0511 36.6083C31.0511 36.7967 31.1094 36.9714 31.2089 37.1157L23.7988 43.4038C23.7526 43.3548 23.7014 43.3107 23.6453 43.2732V43.2738ZM32.3403 35.8085C32.2204 35.749 32.0862 35.7143 31.9437 35.7143C31.8128 35.7143 31.6891 35.7429 31.5774 35.7936L30.7755 34.4754L34.5881 31.7365C34.6354 31.807 34.6921 31.8704 34.7548 31.9271L32.3408 35.8085H32.3403ZM35.5479 30.1263C35.5149 30.123 35.4813 30.1214 35.4478 30.1214C34.8758 30.1214 34.4121 30.5858 34.4121 31.1587C34.4121 31.3024 34.4413 31.4391 34.4941 31.5635L30.6732 34.3079L27.4139 28.9514C27.6444 28.7806 27.8022 28.5173 27.8303 28.216H31.3354C31.3849 28.7426 31.8271 29.1552 32.3661 29.1552C32.9381 29.1552 33.4018 28.6908 33.4018 28.1179C33.4018 27.8865 33.3253 27.6734 33.1972 27.5004L36.3943 24.6166C36.5005 24.7141 36.627 24.7901 36.7667 24.837L35.5484 30.1263H35.5479Z" fill="#C9FA49" fill-opacity="0.6"/>
</svg>
