<svg width="106" height="21" viewBox="0 0 106 21" fill="none" xmlns="http://www.w3.org/2000/svg">
<path fill-rule="evenodd" clip-rule="evenodd" d="M2.19844 17.7005C-0.201563 15.2005 -0.201563 11.3005 2.19844 8.8005L8.79841 2.1005C10.8984 0.1005 13.9984 -0.299501 16.3984 1.2005C17.0984 1.6005 17.0984 2.6005 16.4984 3.2005C15.8984 3.9005 14.8984 3.8005 14.0984 3.6005C12.9984 3.2005 11.7984 3.5005 10.9984 4.4005L4.39845 11.0005C3.19845 12.2005 3.19845 14.2005 4.39845 15.5005C5.59845 16.7005 7.49841 16.7005 8.79841 15.5005L21.9984 2.1005C24.3984 -0.2995 28.2984 -0.2995 30.6984 2.1005L37.2984 8.8005C39.6984 11.2005 39.6984 15.2005 37.1984 17.7005C34.7984 20.1005 30.8984 20.1005 28.4984 17.7005L26.2984 15.5005L23.4984 18.2005C21.4984 20.3005 18.3984 20.6005 15.9984 19.2005C15.2984 18.8005 15.2984 17.7005 15.8984 17.1005C16.4984 16.5005 17.4984 16.6005 18.2984 16.8005C19.2984 17.1005 20.4984 16.8005 21.3984 16.0005L24.1984 13.2005C25.3984 12.0005 27.2984 12.0005 28.3984 13.2005L30.6984 15.4005C31.8984 16.7005 33.7984 16.7005 35.0984 15.4005C36.2984 14.2005 36.2984 12.2005 35.0984 11.0005L28.4984 4.3005C27.2984 3.1005 25.3984 3.1005 24.0984 4.3005L10.8984 17.7005C8.49845 20.1005 4.59844 20.1005 2.19844 17.7005Z" fill="black"/>
<path d="M63.9016 3.80078C62.3683 3.80078 61.2016 4.36745 60.4016 5.50078C59.7349 4.36745 58.7016 3.80078 57.3016 3.80078C55.8349 3.80078 54.7682 4.33411 54.1016 5.40078V4.20078H51.1016V15.8008H54.0016L54.1016 9.20078C54.1016 7.60078 54.9016 6.60078 56.2016 6.60078C57.5016 6.60078 58.2016 7.40078 58.2016 8.80078L58.1016 15.8008H61.1016L61.2016 9.20078C61.2016 7.50078 61.9016 6.60078 63.3016 6.60078C64.5016 6.60078 65.2016 7.40078 65.2016 8.80078V15.8008H68.2016V8.60078C68.2016 5.70078 66.5016 3.80078 63.9016 3.80078Z" fill="black"/>
<path d="M79.2984 5.50078C78.4317 4.36745 77.1651 3.80078 75.4984 3.80078C73.9651 3.80078 72.6651 4.40078 71.5984 5.60078C70.4651 6.80078 69.8984 8.26745 69.8984 10.0008C69.8984 11.6674 70.4317 13.1008 71.4984 14.3008C72.6317 15.5008 73.9651 16.1008 75.4984 16.1008C77.0984 16.1008 78.3651 15.5341 79.2984 14.4008V15.8008H82.1984L82.2984 4.10078H79.2984V5.50078ZM73.7984 12.4008C73.1984 11.7341 72.8984 10.9341 72.8984 10.0008C72.8984 9.06745 73.1984 8.26745 73.7984 7.60078C74.3984 7.00078 75.1651 6.70078 76.0984 6.70078C77.0317 6.70078 77.7984 7.00078 78.3984 7.60078C78.9984 8.26745 79.2984 9.06745 79.2984 10.0008C79.2984 10.9341 78.9651 11.7341 78.2984 12.4008C77.6984 13.0008 76.9651 13.3008 76.0984 13.3008C75.1651 13.3008 74.3984 13.0008 73.7984 12.4008Z" fill="black"/>
<path d="M93.2969 6.10156V4.10156H84.5969V7.00156H89.1969L84.2969 13.8016V15.8016H93.3969L93.4969 12.9016H88.2969L93.2969 6.10156Z" fill="black"/>
<path d="M105.902 11.2008C105.968 10.7341 106.002 10.3008 106.002 9.90078C106.002 8.16745 105.468 6.73411 104.402 5.60078C103.335 4.40078 101.935 3.80078 100.202 3.80078C98.4016 3.80078 96.9349 4.40078 95.8016 5.60078C94.6682 6.73411 94.1016 8.20078 94.1016 10.0008C94.1016 11.7341 94.6682 13.1674 95.8016 14.3008C96.9349 15.5008 98.4683 16.1008 100.402 16.1008C102.602 16.1008 104.268 15.2674 105.402 13.6008L103.102 12.2008C102.502 13.0008 101.635 13.4008 100.502 13.4008C98.7016 13.4008 97.6016 12.6674 97.2016 11.2008H105.902ZM97.2016 8.90078C97.5016 7.40078 98.6016 6.50078 100.202 6.50078C101.602 6.50078 102.702 7.30078 103.102 8.90078H97.2016Z" fill="black"/>
</svg>
