<svg width="60" height="26" viewBox="0 0 60 26" fill="none" xmlns="http://www.w3.org/2000/svg">
<path fill-rule="evenodd" clip-rule="evenodd" d="M59.4984 14.5984H51.4984C51.6984 16.5984 53.0985 17.1984 54.6985 17.1984C56.2985 17.1984 57.5985 16.7984 58.6985 16.2984V19.5984C57.5985 20.2984 56.0985 20.6984 54.1985 20.6984C50.1985 20.6984 47.3984 18.1984 47.3984 13.0984C47.3984 8.79844 49.7985 5.39844 53.6985 5.39844C57.5985 5.39844 59.5984 8.79844 59.5984 13.0984C59.5984 13.4984 59.4984 14.3984 59.4984 14.5984ZM55.6985 11.4984C55.6985 9.59844 54.6985 8.89844 53.6985 8.89844C52.5985 8.89844 51.4984 9.59844 51.4984 11.4984H55.6985Z" fill="black"/>
<path fill-rule="evenodd" clip-rule="evenodd" d="M46.7016 12.9984C46.7016 18.2984 44.0016 20.7984 41.1016 20.7984C39.6016 20.7984 38.8016 20.0984 38.2016 19.6984L38.1016 24.4984L34.1016 25.3984V5.69844H37.7016L37.9016 6.79844C38.5016 6.19844 39.5016 5.49844 41.2016 5.39844C44.0016 5.39844 46.7016 8.09844 46.7016 12.9984ZM42.7016 13.0984C42.7016 10.8984 41.6016 9.19844 40.2016 9.19844C39.2016 9.19844 38.6016 9.49844 38.2016 9.99844V16.2984C38.6016 16.6984 39.2016 17.0984 40.1016 17.0984C41.6016 17.0984 42.6016 15.3984 42.7016 13.0984Z" fill="black"/>
<path fill-rule="evenodd" clip-rule="evenodd" d="M28.5 4.50156L32.6 3.60156V0.101562L28.5 1.00156V4.50156Z" fill="black"/>
<path d="M32.5984 5.69922H28.4984L28.3984 20.4992H32.4984L32.5984 5.69922Z" fill="black"/>
<path fill-rule="evenodd" clip-rule="evenodd" d="M24.0969 6.9993L23.7969 5.7993H20.2969V20.4993H24.2969L24.3969 10.4993C25.3969 9.1993 26.9969 9.3993 27.4969 9.5993V5.6993C26.9969 5.4993 25.0969 5.1993 24.0969 6.9993Z" fill="black"/>
<path fill-rule="evenodd" clip-rule="evenodd" d="M15.8984 2.10156L11.9984 3.00156L11.8984 16.5016C11.8984 19.0016 13.6984 20.8016 16.0984 20.8016C17.3984 20.8016 18.3984 20.5016 18.9984 20.2016V16.8016C18.4984 17.0016 15.8984 17.8016 15.8984 15.3016V9.30156H18.9984V5.80156H15.8984V2.10156Z" fill="black"/>
<path fill-rule="evenodd" clip-rule="evenodd" d="M4.90311 10C4.90311 9.4 5.4031 9.1 6.3031 9.1C7.5031 9.1 9.1031 9.5 10.3031 10.2V6.3C9.0031 5.7 7.6031 5.5 6.3031 5.5C3.0031 5.5 0.703125 7.3 0.703125 10.3C0.703125 14.9 6.90311 14.2 6.90311 16.2C6.90311 16.9 6.3031 17.2 5.3031 17.2C4.0031 17.2 2.30311 16.6 0.903107 15.8V19.9C2.40311 20.5 3.9031 20.8 5.3031 20.8C8.7031 20.8 11.1031 19.1 11.1031 16.1C11.1031 11 4.90311 11.9 4.90311 10Z" fill="black"/>
</svg>
