<svg width="107" height="27" viewBox="0 0 107 27" fill="none" xmlns="http://www.w3.org/2000/svg">
<path d="M39.9024 5.80078H34.1024C33.7024 5.80078 33.3024 6.10078 33.3024 6.50078L30.9024 21.7008C30.8024 22.0008 31.1024 22.3008 31.4024 22.3008H34.2024C34.5024 22.3008 34.9024 22.0008 35.0024 21.6008L35.6024 17.5008C35.7024 17.1008 36.0024 16.8008 36.4024 16.8008H38.3024C42.1691 16.8008 44.3691 14.9341 44.9024 11.2008C45.1691 9.53412 44.9357 8.23411 44.2024 7.30078C43.4024 6.40078 41.9024 5.80078 39.9024 5.80078ZM40.6024 11.4008C40.3024 13.5008 38.7024 13.5008 37.1024 13.5008H36.2024L36.9024 9.50078C36.9024 9.30078 37.1024 9.10078 37.3024 9.10078H37.8024C38.8024 9.10078 39.8024 9.10078 40.3024 9.70078C40.6357 10.1008 40.7357 10.6674 40.6024 11.4008Z" fill="black"/>
<path d="M57.3991 11.3007H54.5991C54.3991 11.3007 54.1991 11.5007 54.0991 11.7007L53.9991 12.5007L53.7991 12.2007C53.1991 11.4007 51.8991 11.1007 50.4991 11.1007C47.3991 11.0007 44.7991 13.4007 44.1991 16.8007C43.9991 18.4007 44.2991 20.0007 45.2991 21.1007C46.0991 22.1007 47.2991 22.6007 48.7991 22.6007C51.2991 22.6007 52.6991 20.9007 52.6991 20.9007L52.4991 21.7007C52.4991 22.0007 52.6991 22.3007 52.9991 22.3007H55.5991C55.9991 22.3007 56.2991 22.0007 56.3991 21.6007L57.8991 11.9007C57.9991 11.6007 57.6991 11.3007 57.3991 11.3007ZM53.4991 16.8007C53.1991 18.5007 51.9991 19.6007 50.2991 19.6007C49.4991 19.6007 48.8991 19.3007 48.4991 18.8007C47.9991 18.3007 47.8991 17.6007 47.9991 16.8007C48.2991 15.2007 49.5991 14.1007 51.1991 14.1007C51.9991 14.1007 52.5991 14.3007 52.9991 14.8007C53.4991 15.3007 53.5991 16.1007 53.4991 16.8007Z" fill="black"/>
<path d="M72.399 11.3008H69.4989C69.2989 11.3008 68.999 11.5008 68.899 11.7008L64.9989 17.5008L63.2989 11.9008C63.1989 11.6008 62.8989 11.3008 62.5989 11.3008H59.7989C59.3989 11.3008 59.1989 11.7008 59.2989 12.0008L62.399 21.2008L59.4989 25.4008C59.1989 25.7008 59.499 26.1008 59.899 26.1008H62.6989C62.9989 26.1008 63.1989 26.0008 63.2989 25.8008L72.7989 12.1008C72.9989 11.8008 72.799 11.3008 72.399 11.3008Z" fill="black"/>
<path d="M81.7016 5.90078L75.9016 5.80078C75.5016 5.80078 75.1016 6.10078 75.0016 6.50078L72.6016 21.7008C72.6016 22.0008 72.8016 22.3008 73.1016 22.3008H76.1016C76.4016 22.3008 76.6016 22.1008 76.7016 21.8008L77.4016 17.5008C77.4016 17.1008 77.8016 16.8008 78.2016 16.8008H80.0016C83.8683 16.8008 86.1016 14.9341 86.7016 11.2008C86.9683 9.53412 86.7349 8.26745 86.0016 7.40078C85.1016 6.40078 83.7016 5.90078 81.7016 5.90078ZM82.4016 11.4008C82.0016 13.5008 80.4016 13.5008 78.9016 13.5008H78.0016L78.6016 9.60078C78.7016 9.30078 78.9016 9.10078 79.1016 9.10078H79.5016C80.6016 9.10078 81.6016 9.10078 82.1016 9.80078C82.3682 10.1341 82.4683 10.6674 82.4016 11.4008Z" fill="black"/>
<path d="M99.1969 11.3016H96.397C96.097 11.3016 95.897 11.5016 95.897 11.8016L95.7969 12.6016L95.5969 12.3016C94.9969 11.4016 93.5969 11.1016 92.2969 11.1016C89.1969 11.1016 86.4969 13.4016 85.9969 16.8016C85.6969 18.4016 86.0969 20.0016 86.9969 21.1016C87.8969 22.2016 89.0969 22.6016 90.5969 22.6016C93.0969 22.6016 94.397 21.0016 94.397 21.0016L94.2969 21.7016C94.2969 22.1016 94.4969 22.3016 94.7969 22.3016H97.2969C97.6969 22.3016 98.0969 22.0016 98.0969 21.6016L99.6969 11.9016C99.6969 11.6016 99.4969 11.3016 99.1969 11.3016ZM95.2969 16.9016C94.9969 18.5016 93.6969 19.6016 92.0969 19.6016C91.2969 19.6016 90.5969 19.3016 90.1969 18.8016C89.7969 18.3016 89.5969 17.6016 89.7969 16.8016C89.9969 15.2016 91.297 14.1016 92.897 14.1016C93.697 14.1016 94.3969 14.4016 94.7969 14.9016C95.1969 15.4016 95.3969 16.1016 95.2969 16.9016Z" fill="black"/>
<path d="M102.496 6.29844L100.096 21.7984C99.9963 22.0984 100.196 22.2984 100.496 22.2984H102.996C103.396 22.2984 103.696 21.9984 103.796 21.5984L106.196 6.39844C106.196 6.09844 105.996 5.89844 105.696 5.89844H102.996C102.796 5.89844 102.496 5.99844 102.496 6.29844Z" fill="black"/>
<path d="M6.60309 25.1984L7.00311 22.3984L6.00311 22.2984H1.20312L4.60309 1.09844C4.60309 1.03177 4.63646 0.965104 4.70312 0.898438C4.76979 0.898438 4.83647 0.898438 4.90314 0.898438H12.9031C15.5698 0.898438 17.4031 1.43177 18.4031 2.49844C18.8031 3.03177 19.0698 3.59844 19.2031 4.19844C19.4031 4.79844 19.4031 5.5651 19.2031 6.49844V6.59844V7.09844L19.7031 7.39844C20.1031 7.59844 20.4031 7.83177 20.6031 8.09844C21.0031 8.5651 21.2364 9.13177 21.3031 9.79844C21.4364 10.4651 21.4031 11.2651 21.2031 12.1984C21.0031 13.2651 20.6698 14.1984 20.2031 14.9984C19.8031 15.6651 19.3031 16.2318 18.7031 16.6984C18.1031 17.1651 17.3698 17.4984 16.5031 17.6984C15.7698 17.8984 14.9031 17.9984 13.9031 17.9984H13.3031C12.8031 17.9984 12.4031 18.0984 12.1031 18.3984C11.7031 18.6984 11.5031 19.0984 11.4031 19.5984V19.7984L10.6031 24.8984L10.5031 25.0984C10.5031 25.1651 10.5031 25.1984 10.5031 25.1984C10.5031 25.1984 10.4698 25.1984 10.4031 25.1984H6.60309Z" fill="black"/>
<path d="M20.1016 6.60156C20.1016 6.80156 20.0683 6.96823 20.0016 7.10156C19.0016 12.6016 15.3016 14.5016 10.7016 14.5016H8.30157C7.80157 14.5016 7.3016 14.9016 7.2016 15.5016L6.00159 23.2016L5.60156 25.4016C5.60156 25.8016 5.9016 26.1016 6.2016 26.1016H10.4016C10.9016 26.1016 11.3016 25.8016 11.4016 25.3016V25.0016L12.2016 20.0016L12.3016 19.7016C12.4016 19.2016 12.8016 18.9016 13.3016 18.9016H13.9016C18.0016 18.9016 21.1016 17.2016 22.1016 12.4016C22.5016 10.4016 22.3016 8.70156 21.3016 7.50156C20.9682 7.16823 20.5682 6.86823 20.1016 6.60156Z" fill="black"/>
<path d="M19.0031 6.20078C18.8698 6.13411 18.7031 6.06745 18.5031 6.00078C18.3031 6.00078 18.1364 5.96745 18.0031 5.90078C17.3364 5.83411 16.6365 5.80078 15.9031 5.80078H9.60309C9.46975 5.80078 9.33646 5.83411 9.20312 5.90078C8.90313 6.00078 8.70309 6.30078 8.60309 6.60078L7.20312 15.2008V15.5008C7.30313 14.9008 7.8031 14.5008 8.3031 14.5008H10.7031C15.3031 14.5008 19.0031 12.6008 20.0031 7.10078C20.0698 6.96745 20.1031 6.80078 20.1031 6.60078C19.8364 6.46745 19.5365 6.33411 19.2031 6.20078C19.1365 6.20078 19.0698 6.20078 19.0031 6.20078Z" fill="black"/>
<path d="M8.59686 6.6C8.69686 6.3 8.8969 6 9.1969 5.9C9.33023 5.83333 9.46353 5.8 9.59686 5.8H15.8969C16.6302 5.8 17.3302 5.83333 17.9969 5.9C18.1302 5.96667 18.2969 6 18.4969 6C18.6969 6.06667 18.8636 6.13333 18.9969 6.2C19.0636 6.2 19.1302 6.2 19.1969 6.2C19.5302 6.33333 19.8302 6.46667 20.0969 6.6C20.3969 4.6 20.0969 3.2 18.9969 1.9C17.7969 0.6 15.6969 0 12.8969 0H4.89691C4.29691 0 3.7969 0.4 3.6969 0.9L0.296875 22.4C0.296875 22.8 0.596887 23.2 0.996887 23.2H5.99689L7.1969 15.2L8.59686 6.6Z" fill="black"/>
</svg>
