<svg width="102" height="19" viewBox="0 0 102 19" fill="none" xmlns="http://www.w3.org/2000/svg">
<path d="M21.0969 5.00156C17.3969 5.00156 14.5969 7.80156 14.5969 11.6016C14.5969 15.3016 17.2969 18.1016 20.9969 18.1016C24.7969 18.1016 27.5969 15.3016 27.5969 11.5016C27.5969 7.80156 24.7969 5.00156 21.0969 5.00156ZM21.0969 15.4016C18.9969 15.4016 17.4969 13.7016 17.4969 11.6016C17.4969 9.30156 18.9969 7.70156 21.0969 7.70156C23.1969 7.70156 24.6969 9.40156 24.6969 11.6016C24.6969 13.8016 23.0969 15.4016 21.0969 15.4016ZM28.3969 7.90156H30.1969V17.8016H33.0969V5.30156H28.3969V7.90156ZM7.29688 7.70156C8.79688 7.70156 9.99689 8.70156 10.4969 10.1016H13.4969C12.9969 7.10156 10.4969 5.00156 7.29688 5.00156C3.69688 5.00156 0.796875 7.80156 0.796875 11.6016C0.796875 15.3016 3.59687 18.1016 7.29688 18.1016C10.3969 18.1016 12.8969 16.0016 13.4969 13.0016H10.4969C9.99689 14.4016 8.79688 15.4016 7.29688 15.4016C5.19688 15.4016 3.6969 13.7016 3.6969 11.6016C3.7969 9.30156 5.19688 7.70156 7.29688 7.70156ZM83.3969 10.4016L81.2969 10.1016C80.1969 9.90156 79.4969 9.60156 79.4969 8.80156C79.4969 7.90156 80.4969 7.50156 81.6969 7.50156C83.0969 7.50156 83.9969 8.10156 84.1969 9.10156H86.9969C86.6969 6.50156 84.7969 5.10156 81.7969 5.10156C78.7969 5.10156 76.6969 6.60156 76.6969 8.90156C76.6969 11.0349 78.0302 12.2682 80.6969 12.6016L82.7969 13.0016C83.8969 13.1016 84.4969 13.5016 84.4969 14.3016C84.4969 15.3016 83.3969 15.7016 81.9969 15.7016C80.2969 15.7016 79.3969 15.0016 79.1969 13.9016H76.3969C76.5969 16.4016 78.4969 18.1016 81.9969 18.1016C85.1969 18.1016 87.2969 16.7016 87.2969 14.2016C87.2969 11.9016 85.7969 10.7016 83.3969 10.4016ZM31.6969 0.101562C30.5969 0.101562 29.7969 0.901562 29.7969 1.90156C29.7969 3.00156 30.5969 3.80156 31.6969 3.80156C32.6969 3.80156 33.4969 3.00156 33.4969 1.90156C33.4969 0.901562 32.6969 0.101562 31.6969 0.101562ZM74.0969 9.60156C74.0969 6.90156 72.4969 5.10156 68.9969 5.10156C65.6969 5.10156 63.8969 6.70156 63.4969 9.30156H66.3969C66.5969 8.30156 67.2969 7.50156 68.9969 7.50156C70.3969 7.50156 71.1969 8.10156 71.1969 8.90156C71.1969 10.0016 69.7969 10.3016 68.1969 10.4016C65.9969 10.7016 63.1969 11.4016 63.1969 14.4016C63.1969 16.6016 64.8969 18.1016 67.4969 18.1016C69.5969 18.1016 70.8969 17.2016 71.4969 15.8016C71.5969 17.1016 72.5969 17.9016 73.7969 17.9016H75.4969V15.3016H74.0969V9.60156ZM71.2969 12.8016C71.2969 14.4016 69.7969 15.7016 68.0969 15.7016C66.9969 15.7016 66.0969 15.2016 66.0969 14.2016C66.0969 13.0016 67.4969 12.7016 68.8969 12.5016C70.1969 12.4016 70.8969 12.1016 71.2969 11.5016V12.8016ZM55.8969 5.10156C54.2969 5.10156 52.9969 5.80156 51.9969 7.00156V0.101562H49.0969V17.9016H51.8969V16.3016C52.8969 17.5016 54.2969 18.2016 55.8969 18.2016C59.3969 18.2016 61.9969 15.4016 61.9969 11.7016C61.9969 7.90156 59.3969 5.10156 55.8969 5.10156ZM55.4969 15.5016C53.3969 15.5016 51.8969 13.9016 51.8969 11.7016C51.8969 9.50156 53.3969 7.80156 55.4969 7.80156C57.5969 7.80156 59.0969 9.50156 59.0969 11.7016C59.0969 13.9016 57.4969 15.5016 55.4969 15.5016ZM42.1969 5.10156C40.2969 5.10156 39.0969 5.90156 38.2969 7.00156V5.40156H35.4969L35.3969 17.9016H38.2969L38.3969 11.1016C38.3969 9.20156 39.5969 7.80156 41.3969 7.80156C42.9969 7.80156 44.0969 9.00156 43.9969 10.7016V17.9016H46.8969V10.5016C46.9969 7.40156 45.2969 5.10156 42.1969 5.10156ZM101.097 11.3016C101.097 7.70156 98.4969 5.20156 94.9969 5.20156C91.2969 5.20156 88.5969 8.00156 88.4969 11.7016C88.4969 15.6016 91.3969 18.2016 94.9969 18.2016C97.9969 18.2016 100.397 16.4016 100.997 13.9016H97.9969C97.5969 15.0016 96.4969 15.6016 95.0969 15.6016C93.1969 15.6016 91.7969 14.4016 91.4969 12.4016H101.097V11.3016ZM91.6969 10.3016C92.0969 8.60156 93.3969 7.70156 94.8969 7.70156C96.5969 7.70156 97.7969 8.70156 98.0969 10.3016H91.6969Z" fill="black"/>
</svg>
