<svg width="179" height="37" viewBox="0 0 179 37" fill="none" xmlns="http://www.w3.org/2000/svg">
<path d="M11.8031 15.6L18.7031 8.6L25.6031 15.6L29.6031 11.5L18.7031 0.5L7.70312 11.5L11.8031 15.6Z" fill="black"/>
<path d="M8.89844 18.3984L4.89844 14.3984L0.898438 18.3984L4.89844 22.4984L8.89844 18.3984Z" fill="black"/>
<path d="M11.8031 21.3008L18.7031 28.3008L25.6031 21.3008L29.6031 25.4008L18.6031 36.4008L7.70312 25.3008L11.8031 21.3008Z" fill="black"/>
<path d="M32.3984 22.4984L36.3984 18.4984L32.3984 14.3984L28.3984 18.4984L32.3984 22.4984Z" fill="black"/>
<path d="M22.7016 18.4008L18.7016 14.3008L15.7016 17.4008H15.6016L15.3016 17.7008L14.6016 18.4008L18.7016 22.5008L22.7016 18.4008Z" fill="black"/>
<path d="M42.7031 9.19922H51.5031C53.6365 9.26589 55.2698 9.83255 56.4031 10.8992C57.2698 11.7659 57.7031 12.8659 57.7031 14.1992C57.7031 14.7326 57.6365 15.2326 57.5031 15.6992C57.3698 16.0992 57.1698 16.4659 56.9031 16.7992C56.7031 17.1326 56.4698 17.4326 56.2031 17.6992C55.8698 17.9659 55.5365 18.1659 55.2031 18.2992C56.2698 18.7659 57.1365 19.3326 57.8031 19.9992C58.4031 20.7326 58.7031 21.7326 58.7031 22.9992V23.0992C58.7031 23.9659 58.5365 24.6992 58.2031 25.2992C57.8698 25.9659 57.4031 26.5326 56.8031 26.9992C56.2031 27.3992 55.4698 27.6992 54.6031 27.8992C53.6698 28.1659 52.7031 28.2992 51.7031 28.2992L42.7031 28.1992V9.19922ZM50.6031 16.8992C51.4698 16.8992 52.1698 16.7659 52.7031 16.4992C53.2365 16.1659 53.5365 15.6326 53.6031 14.8992H53.5031C53.5698 14.2326 53.3698 13.7326 52.9031 13.3992C52.4365 13.0659 51.7365 12.8992 50.8031 12.8992H46.7031V16.8992H50.6031ZM51.7031 24.5992C52.6365 24.5992 53.3698 24.4326 53.9031 24.0992C54.4365 23.7659 54.7031 23.2326 54.7031 22.4992C54.7031 21.8326 54.4365 21.3326 53.9031 20.9992C53.4365 20.5992 52.6698 20.3992 51.6031 20.3992H46.8031V24.5992H51.7031Z" fill="black"/>
<path d="M63.8984 9.30078H68.0984V28.3008H63.8984V9.30078Z" fill="black"/>
<path d="M74.3969 9.30078H78.1969L86.9969 21.0008V9.30078H91.0969V28.3008H87.5969L78.4969 16.2008L78.3969 28.3008H74.2969L74.3969 9.30078Z" fill="black"/>
<path d="M103.702 9.19922H107.502L115.602 28.2992H111.202L109.502 24.0992H101.502L99.8016 28.2992H95.6016L103.702 9.19922ZM108.002 20.3992L105.502 14.1992L103.002 20.3992H108.002Z" fill="black"/>
<path d="M120.102 9.30078L123.902 9.40078L132.702 21.1008V9.40078H136.802V28.4008H133.302L124.202 16.3008L124.102 28.4008H120.102V9.30078Z" fill="black"/>
<path d="M151.702 28.7016C150.368 28.7016 149.102 28.4682 147.902 28.0016C146.702 27.4682 145.668 26.7682 144.802 25.9016C143.935 25.0349 143.268 24.0016 142.802 22.8016C142.335 21.6016 142.102 20.3016 142.102 18.9016C142.102 17.5016 142.335 16.2349 142.802 15.1016C143.268 13.9016 143.935 12.8349 144.802 11.9016C145.668 11.0349 146.702 10.3349 147.902 9.80156C149.168 9.3349 150.502 9.10156 151.902 9.10156C152.835 9.10156 153.635 9.16823 154.302 9.30156C155.035 9.4349 155.702 9.6349 156.302 9.90156C156.902 10.1682 157.468 10.4682 158.002 10.8016C158.468 11.2016 158.935 11.6016 159.402 12.0016L156.702 15.1016C155.968 14.4349 155.235 13.9016 154.502 13.5016C153.702 13.1016 152.835 12.9016 151.902 12.9016C151.102 12.9016 150.368 13.0682 149.702 13.4016C149.035 13.6682 148.468 14.1016 148.002 14.7016C147.468 15.2349 147.068 15.8349 146.802 16.5016C146.535 17.2349 146.402 18.0016 146.402 18.8016V18.9016C146.402 19.7016 146.535 20.4682 146.802 21.2016C147.068 21.9349 147.435 22.5682 147.902 23.1016C148.435 23.6349 149.035 24.0682 149.702 24.4016C150.368 24.7349 151.102 24.9016 151.902 24.9016C152.968 24.9016 153.868 24.7016 154.602 24.3016C155.335 23.9016 156.068 23.3682 156.802 22.7016L159.502 25.3016C159.035 25.8349 158.535 26.3349 158.002 26.8016C157.468 27.2016 156.902 27.5349 156.302 27.8016C155.635 28.1349 154.935 28.3682 154.202 28.5016C153.468 28.6349 152.635 28.7016 151.702 28.7016Z" fill="black"/>
<path d="M164.398 9.39844H178.598V13.1984L168.498 13.0984V16.9984H177.398V20.6984H168.498V24.6984H178.698V28.3984H164.398V9.39844Z" fill="black"/>
</svg>
